<?xml version="1.0" encoding="utf-8"?>
<!-- Generator: Adobe Illustrator 26.3.1, SVG Export Plug-In . SVG Version: 6.00 Build 0)  -->
<svg version="1.1" id="Group_125" xmlns="http://www.w3.org/2000/svg" xmlns:xlink="http://www.w3.org/1999/xlink" x="0px" y="0px"
	 viewBox="0 0 1920 441.3" style="enable-background:new 0 0 1920 441.3;" xml:space="preserve">
<style type="text/css">
	.st0{clip-path:url(#SVGID_00000083070634607335203630000017845974194909107632_);}
	.st1{clip-path:url(#SVGID_00000014636686010554148730000002218943056094650799_);}
	.st2{fill:#23282D;}
	.st3{clip-path:url(#SVGID_00000153681933494088347720000007081643003834166916_);}
	.st4{clip-path:url(#SVGID_00000096742983979088552120000007074303016956612535_);}
	.st5{fill:#B49164;}
	.st6{opacity:0.952;}
	.st7{clip-path:url(#SVGID_00000120538997373550409560000009974932554313507728_);}
	.st8{opacity:0.905;}
	.st9{clip-path:url(#SVGID_00000003095832391008270000000018333527119421377957_);}
	.st10{opacity:0.857;}
	.st11{clip-path:url(#SVGID_00000134961379509380583210000001353664734458524045_);}
	.st12{opacity:0.81;}
	.st13{clip-path:url(#SVGID_00000023265917180850238610000007024865117821299596_);}
	.st14{opacity:0.762;}
	.st15{clip-path:url(#SVGID_00000105398606563925454530000001507285745293664650_);}
	.st16{opacity:0.714;}
	.st17{clip-path:url(#SVGID_00000119826722891559993320000002765892611901534910_);}
	.st18{opacity:0.667;}
	.st19{clip-path:url(#SVGID_00000047027751940063101950000006227323969689762464_);}
	.st20{opacity:0.619;}
	.st21{clip-path:url(#SVGID_00000036217913695246123160000006064803735473310094_);}
	.st22{opacity:0.571;}
	.st23{clip-path:url(#SVGID_00000115475427556751194810000013577981323307959482_);}
	.st24{opacity:0.524;}
	.st25{clip-path:url(#SVGID_00000026870879213794104830000006309831396848520600_);}
	.st26{opacity:0.476;}
	.st27{clip-path:url(#SVGID_00000171716778429872207710000011812682634544113826_);}
	.st28{opacity:0.429;}
	.st29{clip-path:url(#SVGID_00000179641940306086242200000010009199468814992551_);}
	.st30{opacity:0.381;}
	.st31{clip-path:url(#SVGID_00000110435661933617877210000015976152581931837328_);}
	.st32{opacity:0.333;}
	.st33{clip-path:url(#SVGID_00000103962853481314873620000015204472957515034771_);}
	.st34{opacity:0.286;}
	.st35{clip-path:url(#SVGID_00000070101974424429692010000012793810859131240635_);}
	.st36{opacity:0.238;}
	.st37{clip-path:url(#SVGID_00000085968048757961793530000002930182325629057425_);}
	.st38{opacity:0.19;}
	.st39{clip-path:url(#SVGID_00000176030097695127935170000012583431263127965365_);}
	.st40{opacity:0.143;}
	.st41{clip-path:url(#SVGID_00000181793066170106100590000003703763343525190822_);}
	.st42{opacity:9.500000e-02;}
	.st43{clip-path:url(#SVGID_00000067936339472490418410000002493531424974509734_);}
	.st44{opacity:4.800000e-02;}
	.st45{clip-path:url(#SVGID_00000022524452038766491570000011121624834349677472_);}
	.st46{opacity:0;}
	.st47{clip-path:url(#SVGID_00000133515771984459393020000014199839236044544394_);}
	.st48{clip-path:url(#SVGID_00000074404579028017758070000006885074387802749607_);}
	.st49{clip-path:url(#SVGID_00000096058121843756224090000004808857130798684828_);}
	.st50{opacity:0.929;}
	.st51{clip-path:url(#SVGID_00000016780590348733139220000001470498158219379901_);}
	.st52{clip-path:url(#SVGID_00000149381258651806709840000000347971168758218411_);}
	.st53{opacity:0.786;}
	.st54{clip-path:url(#SVGID_00000179622449325728039580000002097621399159449985_);}
	.st55{clip-path:url(#SVGID_00000139261820112567499610000005505118470087656584_);}
	.st56{opacity:0.643;}
	.st57{clip-path:url(#SVGID_00000158010522104217851370000015585140571904299680_);}
	.st58{clip-path:url(#SVGID_00000112623238655510646230000017514621412763643010_);}
	.st59{opacity:0.5;}
	.st60{clip-path:url(#SVGID_00000176003345202756104890000005802255360267684794_);}
	.st61{clip-path:url(#SVGID_00000104693171877956270980000008970279649816758182_);}
	.st62{opacity:0.357;}
	.st63{clip-path:url(#SVGID_00000042719324623314625200000010258212309870964646_);}
	.st64{clip-path:url(#SVGID_00000090995541683736365280000007468374444021348261_);}
	.st65{opacity:0.214;}
	.st66{clip-path:url(#SVGID_00000110437726734490796730000014242055579024333468_);}
	.st67{clip-path:url(#SVGID_00000129170940970867191700000005571548075858774177_);}
	.st68{opacity:7.100000e-02;}
	.st69{clip-path:url(#SVGID_00000159446218481356909900000017034810897184114051_);}
	.st70{clip-path:url(#SVGID_00000087371356221188454540000014941187770054305684_);}
</style>
<g>
	<defs>
		<rect id="SVGID_1_" y="0" width="1920" height="678.5"/>
	</defs>
	<clipPath id="SVGID_00000009552075047787848100000010762697866047891363_">
		<use xlink:href="#SVGID_1_"  style="overflow:visible;"/>
	</clipPath>
	<g id="Group_124" style="clip-path:url(#SVGID_00000009552075047787848100000010762697866047891363_);">
		<g id="Group_123" transform="translate(-0.001)">
			<g>
				<defs>
					<rect id="SVGID_00000183954114714305542420000004671480141151754381_" x="0" y="0" width="1920" height="678.5"/>
				</defs>
				<clipPath id="SVGID_00000029748482170466297130000002834279792814470817_">
					<use xlink:href="#SVGID_00000183954114714305542420000004671480141151754381_"  style="overflow:visible;"/>
				</clipPath>
				<g id="Group_122" style="clip-path:url(#SVGID_00000029748482170466297130000002834279792814470817_);">
					<path id="Path_363" class="st2" d="M0,128.1c162.5,75.3,592.2-73.1,1152.2-10.7c466.4,52,371.8-93.5,767.8,32.3v291.6H0V128.1z
						"/>
					<g id="Group_73" transform="translate(0.001 94.015)">
						<g id="Group_72">
							<g>
								<defs>
									<rect id="SVGID_00000009583584730161646200000014879168902493405320_" y="0" width="1920" height="341.3"/>
								</defs>
								<clipPath id="SVGID_00000132773174268859498860000015254001044522726319_">
									<use xlink:href="#SVGID_00000009583584730161646200000014879168902493405320_"  style="overflow:visible;"/>
								</clipPath>
								<g id="Group_71" style="clip-path:url(#SVGID_00000132773174268859498860000015254001044522726319_);">
									<g id="Group_7">
										<g id="Group_6">
											<g>
												<defs>
													<rect id="SVGID_00000153686024857154057320000004986592986684552837_" y="0" width="1920" height="57.6"/>
												</defs>
												<clipPath id="SVGID_00000150089186150733468850000006317404878720319134_">
													<use xlink:href="#SVGID_00000153686024857154057320000004986592986684552837_"  style="overflow:visible;"/>
												</clipPath>
												<g id="Group_5" style="clip-path:url(#SVGID_00000150089186150733468850000006317404878720319134_);">
													<path id="Path_364" class="st5" d="M1920,55.6C1815.4,20.8,1704.8-11.5,1593.6,4c-19.2,2.5-40.6,6.5-59.7,10.2
														c-29.6,5.8-59.3,11.1-89.3,14.6c-80.1,9.4-161,5.3-241-2.9c-23.3-2.3-51.7-5.9-75-8.4c-24.9-2.6-50.4-4.8-75.4-6.4
														C972.6,6,891.8,6.7,811.2,8c-110.8,1.9-221.8,6.2-332,17.2C359,35.9,239.1,54.5,118.2,54.1C98.1,54,78,52.5,58.1,49.8
														c-19.9-3-39.6-7.6-58.1-15.7c36.7,17.3,78,21.3,118.1,23.2c80.7,2.2,161.3-6.2,241.5-13.9
														C499.9,30.2,640.1,13.4,781,8.7c130.9-4.2,261.7,6.9,391.9,19.9c110.4,9.6,222.1,11.6,332-4.7
														c18.2-2.6,41.6-6.6,59.7-9.4c19.7-3.1,39.8-5.9,59.7-7.4c40-3.1,80.2-0.2,119.8,6.2C1803.7,22.8,1862.1,38.9,1920,55.6
														"/>
												</g>
											</g>
										</g>
									</g>
									<g id="Group_10" transform="translate(0 6.178)" class="st6">
										<g id="Group_9">
											<g>
												<defs>
													<rect id="SVGID_00000073707584291458126310000017362050040874454166_" y="0" width="1897.1" height="64.9"/>
												</defs>
												<clipPath id="SVGID_00000177454594666891100870000004665035995598944942_">
													<use xlink:href="#SVGID_00000073707584291458126310000017362050040874454166_"  style="overflow:visible;"/>
												</clipPath>
												<g id="Group_8" style="clip-path:url(#SVGID_00000177454594666891100870000004665035995598944942_);">
													<path id="Path_365" class="st5" d="M1897.1,51.2c-63.8-20.7-129.1-39.1-195.8-47.5c-32.2-3.7-65-4.9-97.4-2.3
														c-49.8,3.7-98.2,16.6-147.4,24.3c-24.3,3.8-49.4,7-74,8.6c-54.1,3.9-109.7,2-163.9-2.2c-17.8-1.6-41.9-3.6-59.4-5.7
														c-69.1-8-139-13.3-208.6-13.6c-59.1-0.7-119.9,0.9-179.1,2.5c-69.4,2.1-139.4,5.1-208.7,10
														c-109.1,8-217.9,22.5-326.8,31.3c-44.5,3.5-89.3,6-133.9,4.2c-14.6-0.6-30-1.8-44.5-3.9C38,54.1,18.5,49.7,0,42.4
														c20.5,9,42.7,14.1,64.8,17.4c12.1,1.7,25.1,3,37.2,3.8c64.7,3.8,129.5-1.3,194-6.8c135.2-12.2,280.4-29.6,416-38.6
														c49.5-3,99.5-4.4,149.1-3.9c89.4,1.4,178.8,7.3,267.9,15.2c71.8,6.7,144.2,10,216.3,8.1c6.7-0.3,16.1-0.6,22.4-0.9
														c9.8-0.5,20.1-1.1,29.8-1.8c49.7-3.2,99-11.2,148-19.6c18.4-3.1,40.3-6.2,58.9-7.8C1703.8-1,1802,25.3,1897.1,51.2"/>
												</g>
											</g>
										</g>
									</g>
									<g id="Group_13" transform="translate(0 12.247)" class="st8">
										<g id="Group_12">
											<g>
												<defs>
													<rect id="SVGID_00000059299153197596814380000018263257497258689196_" y="0" width="1874.2" height="72.3"/>
												</defs>
												<clipPath id="SVGID_00000087377318324060400940000006479783178649417383_">
													<use xlink:href="#SVGID_00000059299153197596814380000018263257497258689196_"  style="overflow:visible;"/>
												</clipPath>
												<g id="Group_11" style="clip-path:url(#SVGID_00000087377318324060400940000006479783178649417383_);">
													<path id="Path_366" class="st5" d="M1874.2,46.8c-42.2-13.2-85-25.2-128.3-33.8c-23.9-4.8-48.9-8.9-73.1-10.9
														c-29.5-2.7-59.3-2.8-88.8-0.2c-49.2,4.2-96.9,16.9-145.4,24.9c-38.7,6.6-77.9,10.4-117.1,11.5
														c-13.7,0.4-30.5,0.5-44.2,0.2c-11.2,0-25.5-0.7-36.8-1.1c-40.2-1.8-84.7-6.1-124.7-10.2c-68.5-7.1-137.4-9.5-206.3-8.8
														c-108.1,1.6-216.2,5.5-324,12.6c-156.8,9.2-312.4,38.3-469.6,37.5C76.7,67.6,37.1,64,0,50.9C18.3,58.1,37.5,62.8,57,66
														c68.2,10.4,137.7,5.8,206.2,1.1C404.4,55.6,562,35.5,703.3,25.4c39.1-2.6,78.6-4.3,117.8-4.7
														c92.9-0.8,186.8,4.8,279.5,11.6c73.4,6.5,147.3,10,221,7.5c44.2-1.4,88.4-5.3,132.2-11.6
														c41.1-5.9,82.3-14.7,123.6-19.3C1677.6-2.8,1777.6,21.6,1874.2,46.8"/>
												</g>
											</g>
										</g>
									</g>
									<g id="Group_16" transform="translate(0 18.194)" class="st10">
										<g id="Group_15">
											<g>
												<defs>
													<rect id="SVGID_00000170239805603391338060000009239879042359563136_" y="0" width="1851.3" height="79.7"/>
												</defs>
												<clipPath id="SVGID_00000026155345348317016870000007372268590069343152_">
													<use xlink:href="#SVGID_00000170239805603391338060000009239879042359563136_"  style="overflow:visible;"/>
												</clipPath>
												<g id="Group_14" style="clip-path:url(#SVGID_00000026155345348317016870000007372268590069343152_);">
													<path id="Path_367" class="st5" d="M1851.3,42.6C1777,20.4,1700.5,1.7,1622.5,0.1c-38.9-0.6-78.1,3.6-116.2,11.1
														c-28.5,5.4-57.1,11.8-85.6,16.8c-21.1,3.7-43.4,6.8-64.8,9c-41,3.8-82.3,5-123.5,3.5c-42.7-1.2-87.9-5.2-130.5-9.2
														c-87-8.3-174.7-8.6-262-5.4c-48.1,1.5-97.4,3.5-145.4,5.9C617,35.5,539.5,40.9,462.3,49
														c-122.9,11.8-245.8,31-369.5,26.1C61.5,73.3,30,69.1,0,59.4c22.8,8.3,46.9,13.1,70.9,16c53.1,6.4,106.8,4.4,160.1,1.4
														C401.5,65.8,582.2,38,752.7,29.2c67.7-3.4,135.9-2.6,203.6,0.3c37.4,1.6,78.8,3.6,116.1,6.1
														c28.8,1.8,58.3,4.3,87.1,5.6c77.4,3.7,155.7,2.6,232.7-6.2c38.5-4.2,77-11.3,115.1-18c15.3-2.7,34.7-5.8,50.2-7.6
														c35.9-4.4,72.3-4.9,108.3-1.6l14.4,1.4c1.2,0.1,2.4,0.2,3.6,0.3l3.6,0.4l7.2,0.9l7.2,0.9c2.4,0.3,4.8,0.6,7.2,1
														c15.7,2.3,34.5,5.6,50.1,8.6c9.1,2,19.3,4,28.5,5.9C1808.5,32,1830.5,37.4,1851.3,42.6"/>
												</g>
											</g>
										</g>
									</g>
									<g id="Group_19" transform="translate(0 24.124)" class="st12">
										<g id="Group_18">
											<g>
												<defs>
													<rect id="SVGID_00000003794330991725301290000004210993708179594152_" y="0" width="1828.4" height="87.2"/>
												</defs>
												<clipPath id="SVGID_00000003085813947160400950000005185536994464023980_">
													<use xlink:href="#SVGID_00000003794330991725301290000004210993708179594152_"  style="overflow:visible;"/>
												</clipPath>
												<g id="Group_17" style="clip-path:url(#SVGID_00000003085813947160400950000005185536994464023980_);">
													<path id="Path_368" class="st5" d="M1828.4,38.4c-27.5-7.8-55.6-15.3-83.6-21.3c-18.1-4-38.3-7.5-56.6-10.4
														c-13.4-1.9-29.5-3.9-43-5c-3.8-0.4-10.4-0.6-14.4-0.9c-9.6-0.6-19.3-0.7-28.9-0.9c-28.9,0.1-57.8,2.5-86.3,7.1
														c-28.4,4.5-56.6,10.9-84.7,16.6c-56.2,11.8-113.4,19-170.8,19.8c-76.6,2.1-153.1-7.7-229.4-11.8
														c-67.1-3.4-134.2-2.1-201.3,0.7c-36.6,1.4-78.2,3.3-114.8,5.3c-86.1,4.4-172.2,10.2-257.9,19.4
														C342.5,68.6,228.3,85,113.4,83.3C75.2,82.4,36.8,78.8,0,68c9.1,3,18.3,5.6,27.7,7.7c65.8,14.4,133.8,12.4,200.7,8.8
														c153-9.9,304.9-31.7,457.6-44.5c85.9-7.1,172.2-8.2,258.4-5.1c37,1.2,77.8,2.9,114.7,5c28.5,1.6,57.6,3.8,86.1,4.8
														c31.8,1.3,68.8,1.6,100.7,0.8c81.5-1.2,162.7-12.2,242.6-27.6c46.8-8.6,94.5-14.5,142.1-11.8
														C1697.4,9.1,1763.4,23,1828.4,38.4"/>
												</g>
											</g>
										</g>
									</g>
									<g id="Group_22" transform="translate(0 29.983)" class="st14">
										<g id="Group_21">
											<g>
												<defs>
													<rect id="SVGID_00000179614797250896458050000001392271104238256774_" y="0" width="1805.5" height="94.8"/>
												</defs>
												<clipPath id="SVGID_00000132797150489513033670000009362793073551760055_">
													<use xlink:href="#SVGID_00000179614797250896458050000001392271104238256774_"  style="overflow:visible;"/>
												</clipPath>
												<g id="Group_20" style="clip-path:url(#SVGID_00000132797150489513033670000009362793073551760055_);">
													<path id="Path_369" class="st5" d="M1805.5,34.3c-27.2-7.4-55.1-14.3-82.8-19.8c-25.2-5-51.7-9-77.3-11.7
														c-4-0.4-17-1.4-21.3-1.7c-5.9-0.3-15.8-0.7-21.4-0.9c-3.6,0-10.7-0.1-14.3-0.1c-4.2-0.1-16.9,0.3-21.4,0.4
														c-28.5,1.4-56.8,4.7-84.8,10c-41.8,7.9-83.1,18.2-125.2,24.9c-74.6,12.3-150.7,13.1-226.1,8.3
														c-37-2.2-76.2-5.9-113.3-7.2c-94.5-3.9-189.4,1.9-283.7,6.9c-37.6,2.2-75.7,4.4-113.3,7
														C488.5,58.6,357.4,78,225.4,87.5c-37.7,2.6-75.5,4.2-113.2,3.3C74.5,89.9,36.6,86.3,0,76.7l6.8,2
														c1.1,0.3,2.3,0.7,3.4,1c10.2,2.7,20.8,5.1,31.2,6.9c74.9,12.6,151.4,8.4,226.7,3.1c136.7-10.9,272.7-29.4,409.2-42
														c47.1-4,94.3-6.7,141.6-7.6c75.4-1.1,151.3,1.2,226.7,4.6c28.1,1.3,56.9,3.1,85,3.9c75.3,2.2,152-0.9,226.7-10.6
														c58.7-7.3,116.2-21.3,174.8-28.7c35.1-4,70.5-4.7,105.7-2c9.4,0.5,19.1,1.6,28.2,2.4c18.5,2.1,37.7,4.8,56,8
														C1749.9,22.2,1777.9,28.2,1805.5,34.3"/>
												</g>
											</g>
										</g>
									</g>
									<g id="Group_25" transform="translate(0 35.714)" class="st16">
										<g id="Group_24">
											<g>
												<defs>
													<rect id="SVGID_00000016056078075383597260000005818347159677324687_" y="0" width="1782.6" height="102.5"/>
												</defs>
												<clipPath id="SVGID_00000132045571172328334680000001784747367539633286_">
													<use xlink:href="#SVGID_00000016056078075383597260000005818347159677324687_"  style="overflow:visible;"/>
												</clipPath>
												<g id="Group_23" style="clip-path:url(#SVGID_00000132045571172328334680000001784747367539633286_);">
													<path id="Path_370" class="st5" d="M1782.6,30.2c-27-6.9-54.6-13.3-82.1-18.3c-3.6-0.7-10.1-1.7-13.8-2.3
														c-13.6-2.3-28.1-4.3-41.7-5.8c-18.1-2-37.8-3.5-56.1-3.7c-46.9-1.1-93.9,4.6-139.6,14.2
														c-36.6,7.6-72.8,16.3-109.7,22.5c-73.4,12.8-148.8,14.4-223.1,10.6c-26.9-1.2-57-3.7-83.9-4.9
														c-46.7-2.1-93.4-2.3-140.2-0.7C780.5,46.4,668.7,54,557,62.9c-148.7,11.5-296.6,37.9-446.1,35.5
														c-23.3-0.4-46.6-2.2-69.7-5.2c-4.6-0.7-9.2-1.3-13.8-2.1l-6.9-1.2l-6.9-1.4l-3.4-0.7L6.8,87L0,85.5
														C4.5,86.7,9.3,88,13.6,89c13.6,3.2,27.4,5.8,41.4,7.6c92.9,11.9,187,3.5,279.8-5c111.6-10.3,222.6-25.3,334.1-36.2
														c32.2-2.9,65.4-5.3,97.8-6.9c88.4-4.2,177.4-2,265.8,0.8c27.9,1,56.1,2.5,84,2.9c74.8,1.6,149.6-2.7,223.7-12.9
														c73.9-9.6,146.3-30.5,220.9-33.4c23.2-0.9,46.5-0.4,69.7,1.3c20.4,1.4,42.3,3.9,62.5,6.8l3.5,0.5l3.4,0.6
														c9.2,1.6,18.4,2.8,27.6,4.5l13.8,2.5l6.9,1.3l3.4,0.6C1761.9,26.1,1772.3,28.2,1782.6,30.2"/>
												</g>
											</g>
										</g>
									</g>
									<g id="Group_28" transform="translate(0 41.336)" class="st18">
										<g id="Group_27">
											<g>
												<defs>
													<rect id="SVGID_00000113349536783644929790000000918489673567234443_" y="0" width="1759.6" height="110.2"/>
												</defs>
												<clipPath id="SVGID_00000108289116867386668250000011552293204765882802_">
													<use xlink:href="#SVGID_00000113349536783644929790000000918489673567234443_"  style="overflow:visible;"/>
												</clipPath>
												<g id="Group_26" style="clip-path:url(#SVGID_00000108289116867386668250000011552293204765882802_);">
													<path id="Path_371" class="st5" d="M1759.6,26.3c-26.7-6.4-54.2-12.2-81.3-16.7c-17.6-2.7-37.2-5.4-55-7
														c-4-0.3-14-1.2-17.3-1.4c-4.8-0.3-12.4-0.6-17.3-0.9c-43.9-1.6-88.1,2-131.3,9.9c-27.2,4.9-54.3,11.2-81.2,17.2
														c-55,12.5-110.9,21.2-167.3,23.8c-9.2,0.3-21.8,0.9-31.1,1c-17.8,0.3-37.4,0.1-55.2-0.2c-9.2-0.3-21.9-0.7-31-1
														c-22.6-1.3-49.7-2.6-72.5-3.6c-55.1-2-110.9-0.9-166,2.1c-42.8,2.3-94.9,6-138,9C624,65,530.7,71.9,439.9,82.2
														c-123.4,13-247.4,30.3-371.6,22c-4.6-0.4-9.2-0.9-13.7-1.3l-6.9-0.7l-3.4-0.3c-1.1-0.1-2.3-0.3-3.4-0.5l-13.7-2
														c-2.3-0.3-4.6-0.6-6.8-1L13.6,97L0,94.4c5.9,1.4,14.9,3.4,20.2,4.6c3.7,0.8,16.3,2.9,20.4,3.6
														c22.8,3.4,45.8,5.6,68.9,6.7c73.8,3.1,147.7-2.4,221.1-9.3C436,90.3,541.3,76.2,646.5,64.7
														c49.8-5.2,101.5-9,151.6-10.8c73.5-2.3,147.5-1.4,220.9,0.2c101.3,4.3,203.2,2.1,303.5-13.2
														c75.1-10.5,148.8-31.7,224.8-35l6.9-0.2l6.9-0.2c2.3-0.1,4.6-0.2,6.9-0.1l13.8,0l3.4,0l3.4,0.1l6.9,0.2l6.9,0.2
														l3.4,0.1c14.1,0.7,30.6,2,44.7,3.4c17.7,2,37.1,4.6,54.7,7.3C1722.8,19.5,1742.1,23.1,1759.6,26.3"/>
												</g>
											</g>
										</g>
									</g>
									<g id="Group_31" transform="translate(0 46.862)" class="st20">
										<g id="Group_30">
											<g>
												<defs>
													<rect id="SVGID_00000161627974605270625300000012067929729385688498_" y="0" width="1736.7" height="118.1"/>
												</defs>
												<clipPath id="SVGID_00000158744872625285997510000006149323450320949382_">
													<use xlink:href="#SVGID_00000161627974605270625300000012067929729385688498_"  style="overflow:visible;"/>
												</clipPath>
												<g id="Group_29" style="clip-path:url(#SVGID_00000158744872625285997510000006149323450320949382_);">
													<path id="Path_372" class="st5" d="M1736.7,22.5c-66.6-14.9-135-24.9-203.3-22c-27.4,1.1-54.7,4-81.7,8.6
														c-49.4,8.3-97.7,21.8-146.9,30.9c-64.7,12.4-130.9,16.5-196.7,15.7c-42.7-0.6-86.8-3.6-129.5-3.7
														c-58.7-0.7-118.7,2.8-177.3,7c-122.4,9.4-245,18-367,31.8c-112.8,12.4-226,26.4-339.6,22.9c-27.1-1.2-54.6-3.4-81.3-8
														L0,103.4c8.8,1.8,18.3,4,26.8,5.3c27,4.5,54.2,7.3,81.5,8.4c72.8,3,145.8-1.9,218.2-8.8
														c145-12.4,288.8-37.3,434.1-45.9c99.6-5.3,200.1-4,299.8-2.5c45.4,0.7,91.2-0.9,136.5-4.6
														c77.2-5.8,153.5-19.9,229.2-35.2c12.5-2.4,27.5-5.1,40.2-7.1c22.3-3.6,44.9-6,67.5-7.1
														C1601.7,2.5,1669.8,10.9,1736.7,22.5"/>
												</g>
											</g>
										</g>
									</g>
									<g id="Group_34" transform="translate(0 52.194)" class="st22">
										<g id="Group_33">
											<g>
												<defs>
													<rect id="SVGID_00000004510913153336547740000017041736181841716145_" y="0" width="1713.8" height="126.2"/>
												</defs>
												<clipPath id="SVGID_00000154407048154192437060000011955812530923910320_">
													<use xlink:href="#SVGID_00000004510913153336547740000017041736181841716145_"  style="overflow:visible;"/>
												</clipPath>
												<g id="Group_32" style="clip-path:url(#SVGID_00000154407048154192437060000011955812530923910320_);">
													<path id="Path_373" class="st5" d="M1713.8,18.9C1661.2,8,1607.2,0.7,1553.3,0c-40.5-0.4-81.2,3.5-121,10.5
														c-44.1,7.7-87.8,19.6-131.6,28.7c-52.7,11.2-106.2,17.7-160,19.5c-49,2-98.9-0.2-148-1.2c-26.8-0.2-54.1,0.1-80.9,1
														c-89.6,3.8-179.2,13-268.6,20.4c-107.4,8.3-214.4,21.1-321.5,32.3c-80.3,7.6-161,14-241.6,10
														c-11.2-0.4-22.3-1.6-33.5-2.4L40,118l-13.4-1.5l-3.3-0.4l-3.3-0.5l-6.7-1l-13.3-2c7.2,1.3,16.4,3.1,23.2,4.4
														c6.1,0.9,17.3,2.5,23.3,3.4c15.1,1.7,31.7,3.3,47,4.3c76.2,4.3,152.9-0.5,228.8-7.5c125.1-10.7,249.6-30.8,374.6-42.7
														c98.2-9.2,197.2-9.7,295.7-10.1c25.9,0.1,55,0.5,80.8-0.1c49.4-0.9,98.8-4.4,147.8-10.3
														c57.9-6.9,115.5-17.9,172.5-29.6c48.1-9.9,96.9-18.2,146.1-19c9.9-0.3,17.5-0.2,26.8-0.3l13.4,0.3l6.7,0.2
														c2.2,0,4.5,0.2,6.7,0.3l13.4,0.7l3.4,0.2C1644.2,9.2,1680.3,13.7,1713.8,18.9"/>
												</g>
											</g>
										</g>
									</g>
									<g id="Group_37" transform="translate(0 57.391)" class="st24">
										<g id="Group_36">
											<g>
												<defs>
													<rect id="SVGID_00000059289979637516766170000010956573155606293658_" y="0" width="1690.9" height="134.5"/>
												</defs>
												<clipPath id="SVGID_00000162312143704223449430000017180595251161004161_">
													<use xlink:href="#SVGID_00000059289979637516766170000010956573155606293658_"  style="overflow:visible;"/>
												</clipPath>
												<g id="Group_35" style="clip-path:url(#SVGID_00000162312143704223449430000017180595251161004161_);">
													<path id="Path_374" class="st5" d="M1690.9,15.4c-52-9.7-105.8-15.8-158.7-15.4c-31.1,0.4-62.2,3-93,7.7
														c-21.7,3.2-44,7.6-65.4,12.4c-34,7.6-69.5,16.8-103.6,23.7c-56.3,11.8-113.8,17.9-171.2,19.4c-30.8,1-62.1,0.4-92.9,0
														c-34.4-0.5-72.2,0.2-106.4,1.8c-48.4,2.4-97.5,7-145.8,11.5c-65,6.3-160.2,14.7-224.9,21.1
														c-105.6,10.2-211.2,25-317.1,30.8c-64,3.5-128.4,4.1-192.1-3.7l-6.6-0.9L0,121.9l13.1,2.2c4.5,0.7,8.8,1.6,13.1,2.2
														c8.7,1.1,18,2.5,26.4,3.3c88.3,9.1,177.4,4.1,265.6-3.8C459.6,114.3,599.3,88.9,740.7,78c61.5-4.6,124.1-6.1,185.7-7.5
														c52.6-1.5,106.9-0.4,159.4-3.2c48.6-2.5,97.3-7.5,145.5-14.8c48.2-7,96.1-16.8,143.8-26.6c21.2-4.4,43.7-8.9,65.1-12.3
														c15.8-2.6,33.2-4.7,49.2-6.2c26.1-2.2,53.2-3,79.3-2.6C1608.7,5.8,1651.3,10.1,1690.9,15.4"/>
												</g>
											</g>
										</g>
									</g>
									<g id="Group_40" transform="translate(0 62.439)" class="st26">
										<g id="Group_39">
											<g>
												<defs>
													<rect id="SVGID_00000060016263965515822280000017901220509683109762_" y="0" width="1668" height="143"/>
												</defs>
												<clipPath id="SVGID_00000149377315044461689970000009552104977480646830_">
													<use xlink:href="#SVGID_00000060016263965515822280000017901220509683109762_"  style="overflow:visible;"/>
												</clipPath>
												<g id="Group_38" style="clip-path:url(#SVGID_00000149377315044461689970000009552104977480646830_);">
													<path id="Path_375" class="st5" d="M1668,12.1C1599.1,0.6,1528.2-4,1458.6,3.9c-26,2.8-52.3,7.1-77.9,12.3
														c-59.7,12.3-118.9,29.9-179.3,39.2c-43.1,6.8-86.7,10.8-130.3,12c-26.1,1-52.5,0.7-78.6,0.8c-24.5,0-54.4,0.6-78.7,1.9
														c-30.5,1.2-61.2,3.8-91.6,6.5c-95.1,9.4-205.1,20.7-300.1,30c-143.2,14.2-286.5,36.3-430.7,32.1l-13.1-0.4l-3.3-0.1
														l-3.3-0.2l-6.5-0.4l-13.1-0.8c-2.2-0.1-4.4-0.3-6.5-0.5l-6.5-0.6l-13-1.2c-8.7-0.9-17.4-2-26-3
														c12.3,1.9,26.4,4.3,39,5.5c4.5,0.5,8.8,1.1,13,1.5c5.6,0.5,14.5,1.3,19.6,1.7c3.5,0.4,15.7,1,19.6,1.3
														c65.3,3.6,131.5,0.8,196.7-4.4c148.4-10.5,294.8-37.8,442.9-50.8c95.5-7.6,192.2-9.7,287.9-12.3
														c39.2-1,78.8-4,117.8-8.3c73.9-8.2,147-22.4,219.7-37.9c11.3-2.4,27-5.6,38.5-7.8c18.9-3.8,38.9-7.1,58-9.6
														c36.8-4.6,73.8-6.5,110.8-5.7C1597.9,5.2,1633.9,8.3,1668,12.1"/>
												</g>
											</g>
										</g>
									</g>
									<g id="Group_43" transform="translate(0 67.207)" class="st28">
										<g id="Group_42">
											<g>
												<defs>
													<rect id="SVGID_00000002371969949380328020000014413197195938445443_" y="0" width="1645.1" height="151.7"/>
												</defs>
												<clipPath id="SVGID_00000120552073917046773020000003795737831616083387_">
													<use xlink:href="#SVGID_00000002371969949380328020000014413197195938445443_"  style="overflow:visible;"/>
												</clipPath>
												<g id="Group_41" style="clip-path:url(#SVGID_00000120552073917046773020000003795737831616083387_);">
													<path id="Path_376" class="st5" d="M1645.1,9c-57.6-8.3-116.4-11.5-174.5-7c-49.5,4-98.7,13.1-146.9,24.8
														c-45.8,11.1-92.2,23.4-138.7,31.3c-38.2,6.5-76.8,10.8-115.5,12.9c-20.8,1.1-43.6,2-64.5,2.2
														c-60.1,0.5-121.2,3.4-180.9,9.7c-66.6,6.8-139.1,15.6-205.8,22.4c-99.5,9.6-209.6,23-308.6,32.7
														c-34.1,3.2-68.9,5.7-103.1,7.6c-51.6,3-103.3,3-154.9,0.1l-25.8-2L0,141.2l25.6,3.6c23,2.7,54.3,5.1,77.4,6.1
														c103.6,3.7,207.1-5.9,310-17.3c89.8-10.1,179.5-25.3,269.4-35.1c55.1-6.1,112.3-9.8,167.6-12.6
														c42.3-2.1,86.6-4.4,129.1-5.9c25.5-1,52.2-2.2,77.6-4.4c20.9-1.6,43.6-4.2,64.4-6.7c38.4-4.9,77-11.3,115-18.4
														c67.8-12.2,134.6-30.2,202.9-39.6c29.8-3.9,59.9-6.2,89.9-6.8C1567.3,3.5,1606.9,5.6,1645.1,9"/>
												</g>
											</g>
										</g>
									</g>
									<g id="Group_46" transform="translate(0 71.705)" class="st30">
										<g id="Group_45">
											<g>
												<defs>
													<rect id="SVGID_00000091695870492934834230000007651526259709639072_" y="0" width="1622.2" height="160.7"/>
												</defs>
												<clipPath id="SVGID_00000116946390357073171120000009301529967926681244_">
													<use xlink:href="#SVGID_00000091695870492934834230000007651526259709639072_"  style="overflow:visible;"/>
												</clipPath>
												<g id="Group_44" style="clip-path:url(#SVGID_00000116946390357073171120000009301529967926681244_);">
													<path id="Path_377" class="st5" d="M1622.2,6.3c-57-6.8-115.1-8.5-172.3-3c-44.5,4.5-88.8,12.5-132.3,22.8
														c-36.8,8.8-74.6,19-111.6,27.2c-29,6.4-58.5,11.6-87.9,15.5c-29,3.9-59.6,6.4-88.9,8.1c-29.5,1.6-59.7,2-89.2,3.4
														C855.2,84,770.2,96,686,106.1c-88.1,10.6-191,20.6-279.1,30.8c-101.2,11.6-203.1,21.1-305.1,19.9
														c-16.2-0.2-34.7-0.8-51-1.6c-11.6-0.7-39-2.7-50.9-4l25.3,3.2c25,2.6,51.6,4.6,76.4,5.5
														c102.2,3.5,204.5-5.4,305.9-16.6c88.7-9.9,177-25.3,265.7-35.7c95.8-11.1,196.2-16.2,292.5-21.9
														c20.7-1.1,43-2.6,63.7-4.3c24.9-2.3,51.4-5.4,76.1-8.9c71.6-10.2,142.6-25,213.2-40.4c68.3-15.7,137.5-27.4,207.7-28.4
														c8.6-0.2,17.3-0.1,25.5-0.1C1574.6,3.7,1599.8,4.8,1622.2,6.3"/>
												</g>
											</g>
										</g>
									</g>
									<g id="Group_49" transform="translate(0 75.837)" class="st32">
										<g id="Group_48">
											<g>
												<defs>
													<rect id="SVGID_00000121986650586371351290000016785706492324328087_" y="0" width="1599.3" height="170"/>
												</defs>
												<clipPath id="SVGID_00000145763639427479735580000001646614485909815729_">
													<use xlink:href="#SVGID_00000121986650586371351290000016785706492324328087_"  style="overflow:visible;"/>
												</clipPath>
												<g id="Group_47" style="clip-path:url(#SVGID_00000145763639427479735580000001646614485909815729_);">
													<path id="Path_378" class="st5" d="M1599.3,3.8c-66.9-6.3-134.8-5-201.3,5.3c-100,14.3-195.4,49.6-295.5,63.4
														c-28.9,4.3-58.4,7.2-87.5,9.4c-20.5,1.5-42.3,2.4-62.8,3.5c-96.4,4.2-192.3,19.6-287.9,31.8
														c-53.7,6.8-108.8,12.8-162.6,18.7C364.3,151,226.5,168.9,88,166.1c-11.6-0.2-26-0.6-37.7-1.2
														c-17.4-0.8-33.5-2-50.2-3.3l25,2.8c18.4,1.8,38,3.1,56.5,4.2c181.8,8.2,365.7-20,545.2-46.5
														c40.6-5.5,84.2-10.8,125.1-14.4c78.2-7.4,173-13.2,250.9-20.2c83.7-8.2,166.2-24.5,248.3-42.1
														c49.2-10.4,98.1-22.7,147.7-30.7c37.2-6,74.7-9.7,112.4-11.2C1539.9,2.4,1570.6,2.7,1599.3,3.8"/>
												</g>
											</g>
										</g>
									</g>
									<g id="Group_52" transform="translate(0 79.492)" class="st34">
										<g id="Group_51">
											<g>
												<defs>
													<rect id="SVGID_00000024699246103777322680000016064724731704511156_" y="0" width="1576.4" height="179.9"/>
												</defs>
												<clipPath id="SVGID_00000009549571432446510180000012685757175660888974_">
													<use xlink:href="#SVGID_00000024699246103777322680000016064724731704511156_"  style="overflow:visible;"/>
												</clipPath>
												<g id="Group_50" style="clip-path:url(#SVGID_00000009549571432446510180000012685757175660888974_);">
													<path id="Path_379" class="st5" d="M1576.4,1.9c-66.3-4.5-132.9-1.2-198.4,9.8c-102.5,16.1-200.5,52.4-303.3,66.8
														c-20.3,3.1-41.2,5.6-61.6,7.6c-24.5,2.6-49.6,4.1-74.2,5.9c-90.9,5.7-181.2,21.2-271.3,33.6
														c-22.6,3.1-51.2,6.8-73.9,9.6C417.1,154.6,240.2,180.9,62,175.6c-12-0.3-25.2-1-37.2-1.6L0,172.4
														c10.2,1,27.6,2.9,37.1,3.5c11.5,0.9,25.7,1.8,37.2,2.4c174.1,8,347.9-15.2,519.5-42.3c64.8-9.9,132-17.8,197.3-23.8
														c56.3-5.2,116.6-10.9,173-16.3c11.9-1.1,25.2-2.7,37.1-4.2c61.7-7.9,122.7-19.9,183.5-32.7c81-16.3,161-39,243.1-49.1
														C1476.8,3.4,1527,1.4,1576.4,1.9"/>
												</g>
											</g>
										</g>
									</g>
									<g id="Group_55" transform="translate(0 82.562)" class="st36">
										<g id="Group_54">
											<g>
												<defs>
													<rect id="SVGID_00000116943240439125907210000000645165921203596680_" y="0" width="1553.5" height="190.5"/>
												</defs>
												<clipPath id="SVGID_00000102511551279432598310000001198313350201931946_">
													<use xlink:href="#SVGID_00000116943240439125907210000000645165921203596680_"  style="overflow:visible;"/>
												</clipPath>
												<g id="Group_53" style="clip-path:url(#SVGID_00000102511551279432598310000001198313350201931946_);">
													<path id="Path_380" class="st5" d="M1553.5,0.6c-45-1.6-90,0.2-134.8,5.4c-52.8,6.1-105.2,16.8-156.7,29.6
														c-75.1,19.5-149.9,41-226.9,51.5c-52.3,8-105.7,11.1-158.3,17.1c-64.5,7.2-129.9,18.8-194,28.7
														c-31.2,4.7-65.7,9.5-97.1,13.5c-164.9,19.2-333.8,42.2-500,40.5c-20-0.3-41.2-0.7-61.2-1.7L0,183.9
														c15,1.4,34.3,3,48.9,3.8c24.2,1.5,49.2,2.5,73.5,2.6c89.9,1,180-5.7,269.3-15.3c85.2-9.3,169.9-24.9,254.7-36.9
														c92.3-13,187.2-21.6,279.8-32.7c113.9-12.3,225.5-39,337.1-64.1c51.6-12.2,103.3-23.8,155.9-30.7
														C1463.4,4.4,1509,1.5,1553.5,0.6"/>
												</g>
											</g>
										</g>
									</g>
									<g id="Group_58" transform="translate(0 84.835)" class="st38">
										<g id="Group_57">
											<g>
												<defs>
													<rect id="SVGID_00000047042520656829171630000003379834689111275194_" y="0" width="1530.6" height="201.7"/>
												</defs>
												<clipPath id="SVGID_00000080911778599054006210000013239361808585567144_">
													<use xlink:href="#SVGID_00000047042520656829171630000003379834689111275194_"  style="overflow:visible;"/>
												</clipPath>
												<g id="Group_56" style="clip-path:url(#SVGID_00000080911778599054006210000013239361808585567144_);">
													<path id="Path_381" class="st5" d="M1530.6,0c-48.4,0-96.8,3.6-144.7,10.7c-15.3,2.3-32.6,5.3-47.8,8.2
														c-95.3,17.2-187,49.5-282.2,67.5c-55.4,10.9-111.4,17-167.4,23.5c-39.8,5-80.2,11.1-119.6,18
														c-41.2,7.1-90,15.8-131.2,21.9c-83.5,12.6-168,21.4-251.9,30.7c-71.9,8.2-144.4,13.8-216.7,16.4
														c-35.2,1.3-73.5,1.5-108.7,1.1c-20.1-0.4-40.3-1.1-60.4-1.9l24.1,1.9c4,0.3,8,0.5,12.1,0.8c23.9,1.4,48.6,2.5,72.5,2.8
														c125,1.5,250.2-8.8,373.7-27.3c51.4-7.8,103.8-16.8,155.3-24.5c98.8-14.6,200.8-25.3,299.5-39.9
														c103.6-15.6,205.6-41.1,307.8-64.1c39.1-9.2,78.3-18.8,117.9-25.9c19.1-3.5,40.3-7,59.5-9.7
														C1457.8,5.2,1494.8,2,1530.6,0"/>
												</g>
											</g>
										</g>
									</g>
									<g id="Group_61" transform="translate(0 86.557)" class="st40">
										<g id="Group_60">
											<g>
												<defs>
													<rect id="SVGID_00000090275180987856270150000012820468933520772790_" y="0" width="1507.7" height="213.7"/>
												</defs>
												<clipPath id="SVGID_00000116233180342364848010000001090622664138659457_">
													<use xlink:href="#SVGID_00000090275180987856270150000012820468933520772790_"  style="overflow:visible;"/>
												</clipPath>
												<g id="Group_59" style="clip-path:url(#SVGID_00000116233180342364848010000001090622664138659457_);">
													<path id="Path_382" class="st5" d="M1507.7,0c-23.9,1.1-47.7,2.5-71.4,5c-15.5,1.6-31.9,3.9-47.4,6
														c-34.3,5-71.8,12.5-105.6,20c-58.3,12.7-115.5,30-173.2,45c-45.8,11.6-93.3,21.7-140,29.1
														c-44.9,7.4-96.7,13.6-141.4,21.4c-65.5,10.8-133.9,25.5-199.6,35.8c-65.6,10.4-134.9,18.4-201,25.6
														c-24.1,2.8-52.8,5.7-77,8.4c-12.1,1.1-29.7,2.7-41.5,3.8c-39.3,3.7-91.3,6.5-130.7,8.5c-17.8,0.6-41.8,1.1-59.5,1.7
														c-21.3-0.2-50.1,0.5-71.5-0.1c-11.3-0.3-36.2-0.8-47.7-1l23.8,1.4c9.3,0.5,27.1,1.5,35.7,2c17,0.4,42.6,1.1,59.7,1.3
														c17.7-0.2,42.1-0.4,59.7-0.6c19.9-0.7,39.8-1.3,59.6-2.3c46-2.7,97.2-6.6,142.8-11.6c62.2-6.4,127.2-17.4,188.9-27.6
														c125-21.4,252.4-35.1,377.2-58.1c46.2-8.7,94.1-19.7,139.9-30.4c42.4-9.9,85.5-19.6,127.8-29.6
														c42.3-10,85-20.9,127.7-29.3l11.7-2.4c3.9-0.8,7.8-1.4,11.7-2.1l23.4-4.4c1.9-0.4,3.9-0.7,5.9-1l5.9-0.9l11.8-1.8
														C1444.4,6.5,1476,3.2,1507.7,0"/>
												</g>
											</g>
										</g>
									</g>
									<g id="Group_64" transform="translate(0 88.274)" class="st42">
										<g id="Group_63">
											<g>
												<defs>
													<rect id="SVGID_00000104698995369841876520000010738841189872330886_" y="0" width="1484.7" height="225.6"/>
												</defs>
												<clipPath id="SVGID_00000136408892370676465700000015647975336826234752_">
													<use xlink:href="#SVGID_00000104698995369841876520000010738841189872330886_"  style="overflow:visible;"/>
												</clipPath>
												<g id="Group_62" style="clip-path:url(#SVGID_00000136408892370676465700000015647975336826234752_);">
													<path id="Path_383" class="st5" d="M1484.7,0c-70.2,5.3-140.5,17.3-209.2,33.2c-52.3,11.4-107.6,27.3-159.4,41.7
														c-52.9,14.7-106.4,27-160.4,36.9c-35.4,6.8-80.5,13.7-115.8,20.3c-84.8,15.4-169,35.5-254.3,48
														c-44.8,6.7-94.9,12.8-140,17.6c-104.9,12.2-210.6,21.8-316.3,24c-14.5,0.5-22.4,0.2-35.3,0.4l-23.5,0.3l-5.9,0.1
														c-2,0-3.9,0.1-5.9,0c-17.4-0.2-41.5-0.6-58.8-0.8c46.7,2.6,94.3,4.4,141.2,3.7c70.2-0.2,141.7-4.9,211.6-11.3
														c93.8-8.4,186.5-26.3,279.4-41.4c52.7-8.9,110-16.8,162.7-25.7c30-5,62.6-11,92.6-16.8c76.8-14.6,153.3-35,229.4-52.9
														c25.6-6.1,66.1-15.5,91.6-21.7c30-7.3,61.2-15.2,91.4-22.2c33.9-7.6,69.4-15,103.6-21.1c11.3-2,23.5-3.8,34.8-5.7
														C1453.7,4.1,1469.2,2.4,1484.7,0"/>
												</g>
											</g>
										</g>
									</g>
									<g id="Group_67" transform="translate(0 89.991)" class="st44">
										<g id="Group_66">
											<g>
												<defs>
													<rect id="SVGID_00000131359434675158557510000003665862431932483742_" y="0" width="1461.8" height="237.5"/>
												</defs>
												<clipPath id="SVGID_00000025435500534660597870000013686735108703045310_">
													<use xlink:href="#SVGID_00000131359434675158557510000003665862431932483742_"  style="overflow:visible;"/>
												</clipPath>
												<g id="Group_65" style="clip-path:url(#SVGID_00000025435500534660597870000013686735108703045310_);">
													<path id="Path_384" class="st5" d="M1461.8,0C1389,8.5,1316.3,23.3,1245,40.5c-63.2,14.6-127.7,35.1-190.5,51.5
														c-81.5,21.8-166.8,36.9-249.3,54.5c-45.3,9.7-90.6,20.4-136,29.8c-37.1,7.5-76.8,14.6-114.3,19.9
														c-60,8.7-123.9,15.3-184.3,21.6c-41.2,4.6-85.7,8-127.1,10.8c-17,0.9-41,2.1-57.9,3.1C123.7,234.4,61.9,235,0,234.6
														l23.2,1c54.1,2.5,108.5,2.3,162.6,1.1c29.6-1,63.3-2.5,92.8-4.7c29.6-1.9,63.2-4.8,92.6-7.8
														c61.3-6.3,123.2-16.4,183.8-27.2c37.3-6.4,77.1-13.5,114.4-19.7c45.8-7.5,91.7-15.1,137.2-24.2
														c52.6-10.4,106.6-23,158.4-36.4c36.8-9.5,75.6-19.7,112.4-28.9c30.3-7.5,71.2-17.1,101.5-24.5
														c58-14.5,116.3-29.4,174.7-42.2c20.4-4.4,42-8.7,62.5-12.7C1431.1,5.4,1446.9,2.9,1461.8,0"/>
												</g>
											</g>
										</g>
									</g>
									<g id="Group_70" transform="translate(0 91.708)" class="st46">
										<g id="Group_69">
											<g>
												<defs>
													<rect id="SVGID_00000181062240236846682670000017191736085101177475_" y="0" width="1438.9" height="249.6"/>
												</defs>
												<clipPath id="SVGID_00000166670980177843900360000006278170283329529772_">
													<use xlink:href="#SVGID_00000181062240236846682670000017191736085101177475_"  style="overflow:visible;"/>
												</clipPath>
												<g id="Group_68" style="clip-path:url(#SVGID_00000166670980177843900360000006278170283329529772_);">
													<path id="Path_385" class="st5" d="M1438.9,0c-60,10-120.3,22.7-179.5,37.2c-21.3,5.1-45.5,11-66.7,16.6
														c-34.4,8.8-75.8,21.2-110.2,31.1c-117.3,34-237.2,58.3-355.5,88.1c-21.4,5.3-45.4,10.8-66.9,15.6
														c-81.8,17.9-165.8,28.5-249,36.9C274.7,241.2,137.4,247.6,0,247.4c144.9,5.9,290.7,0.2,434.5-19
														c52.4-7.6,106.1-17.2,158.2-26.6c21.4-3.8,46.1-8.3,67.6-12.2c82.8-14.1,165.2-31.6,246-54.5
														c73-20.4,147.5-41.3,221.4-58.7c29.2-7,59.8-14.7,88.8-22.3C1290.1,34.8,1364.7,16.7,1438.9,0"/>
												</g>
											</g>
										</g>
									</g>
								</g>
							</g>
						</g>
					</g>
					<g id="Group_121" transform="translate(0.001)">
						<g id="Group_120">
							<g>
								<defs>
									<rect id="SVGID_00000138557601027278005050000007729856893840200089_" y="0" width="1920" height="151.6"/>
								</defs>
								<clipPath id="SVGID_00000029007494768412044260000000421519585629741702_">
									<use xlink:href="#SVGID_00000138557601027278005050000007729856893840200089_"  style="overflow:visible;"/>
								</clipPath>
								<g id="Group_119" style="clip-path:url(#SVGID_00000029007494768412044260000000421519585629741702_);">
									<g id="Group_76" transform="translate(0 94.015)">
										<g id="Group_75">
											<g>
												<defs>
													<rect id="SVGID_00000155852920343675387320000014287016395496432007_" y="0" width="1920" height="57.6"/>
												</defs>
												<clipPath id="SVGID_00000029737374042148785720000007653380103823173814_">
													<use xlink:href="#SVGID_00000155852920343675387320000014287016395496432007_"  style="overflow:visible;"/>
												</clipPath>
												<g id="Group_74" style="clip-path:url(#SVGID_00000029737374042148785720000007653380103823173814_);">
													<path id="Path_386" class="st5" d="M1920,55.6C1815.4,20.8,1704.8-11.5,1593.6,4c-19.2,2.5-40.6,6.5-59.7,10.2
														c-29.6,5.8-59.3,11.1-89.3,14.6c-80.1,9.4-161,5.3-241-2.9c-23.3-2.3-51.7-5.9-75-8.4c-24.9-2.6-50.4-4.8-75.4-6.4
														C972.6,6,891.8,6.7,811.2,8c-110.8,1.9-221.8,6.2-332,17.2C359,35.9,239.1,54.5,118.2,54.1C98.1,54,78,52.5,58.1,49.8
														c-19.9-3-39.6-7.6-58.1-15.7c36.7,17.3,78,21.3,118.1,23.2c80.7,2.2,161.3-6.2,241.5-13.9
														C499.9,30.2,640.1,13.4,781,8.7c130.9-4.2,261.7,6.9,391.9,19.9c110.4,9.6,222.1,11.6,332-4.7
														c18.2-2.6,41.6-6.6,59.7-9.4c19.7-3.1,39.8-5.9,59.7-7.4c40-3.1,80.2-0.2,119.8,6.2C1803.7,22.8,1862.1,38.9,1920,55.6
														"/>
												</g>
											</g>
										</g>
									</g>
									<g id="Group_79" transform="translate(0 91.557)" class="st50">
										<g id="Group_78">
											<g>
												<defs>
													<rect id="SVGID_00000151521122650866834220000003449600818738750084_" y="0" width="1920" height="57"/>
												</defs>
												<clipPath id="SVGID_00000059298819457616092290000005756435306462808730_">
													<use xlink:href="#SVGID_00000151521122650866834220000003449600818738750084_"  style="overflow:visible;"/>
												</clipPath>
												<g id="Group_77" style="clip-path:url(#SVGID_00000059298819457616092290000005756435306462808730_);">
													<path id="Path_387" class="st5" d="M1920,57c-37.9-13.2-76.7-25.7-115.7-35.6c-24.4-6.4-49.2-11.6-74.2-15.5
														c-37.6-6-75.8-7.4-113.7-4c-17.6,1.7-35.2,4.4-52.6,7.6c-39.6,7.4-79.1,15.2-119.2,19.4c-67.6,7-136,4.5-203.6-2
														c-31.4-2.9-81-9.6-112.6-13.1c-55.1-6.1-110.7-9.5-166.1-10.3C861.9,2,760.6,4.9,660.1,9.1
														c-141.1,5.4-281.2,24.6-421.7,36c-45.1,3.5-90.4,5.9-135.7,3.7c-20.1-0.8-40.1-3.3-59.8-7.3
														C28.2,38.2,13.7,33.9,0,27.4c18,9.3,37.6,15,57.4,18.6c39.8,7.3,80.5,7.9,120.8,6.9c35.3-1,70.6-3.2,105.8-6.1
														c152.8-12.9,313.5-33,466.8-40.6c40.2-1.7,80.7-2.4,120.9-1.7c80.5,1.6,161,7.2,241.2,14.4
														c40.1,3.7,80.2,8.4,120.4,11.2c70.4,5,141.2,6.5,211.6,1.4c50.3-3.4,100-13.1,149.8-20.6c9.7-1.4,20.1-2.6,29.9-3.4
														c34.8-3.1,70.3-1.4,104.9,3.6c34.8,5.1,69.3,12.2,103.3,21.3C1861.9,39.7,1891.2,48.4,1920,57"/>
												</g>
											</g>
										</g>
									</g>
									<g id="Group_82" transform="translate(0 88.052)" class="st10">
										<g id="Group_81">
											<g>
												<defs>
													<rect id="SVGID_00000171696811506791266420000015351799248228383661_" y="0" width="1920" height="59.3"/>
												</defs>
												<clipPath id="SVGID_00000083058422967283243770000010153537916258166704_">
													<use xlink:href="#SVGID_00000171696811506791266420000015351799248228383661_"  style="overflow:visible;"/>
												</clipPath>
												<g id="Group_80" style="clip-path:url(#SVGID_00000083058422967283243770000010153537916258166704_);">
													<path id="Path_388" class="st5" d="M1920,59.3c-42.7-15.3-86-29.6-130.1-40.4c-4-1-15.1-3.6-18.4-4.4
														c-2.2-0.5-8.8-1.8-11.1-2.3c-14.1-3.1-30.5-5.8-44.9-7.6c-40.3-5.3-81.2-4.8-121.3,1.6c-39.9,6.2-79.2,15.3-119.2,20.3
														c-19.6,2.4-40.4,4.4-60.2,5.3c-54.9,2.7-111.3-0.5-166-6.3c-49.6-5.1-100.6-13.6-150.2-18
														c-75.3-7.2-151.3-8.3-226.9-7.1C827,0.9,780.2,2.1,735.6,3.6c-85.7,2.8-171.4,7.6-256.7,15.8
														C358.5,30.1,238.3,48.2,117.3,45.7C87.3,44.6,56.9,41.8,28,32.9c-9.7-2.9-19-6.6-28-11.2c13.2,7.3,27.7,12.6,42.2,16.5
														c29.4,7.5,59.9,10.3,90.1,11.3c35.3,1,70.7-0.3,106-2.4C436.4,34.7,642.9,2,841.4,1.3c35.2-0.1,70.6,1.1,105.8,2.6
														c49.4,2.4,101.4,6.2,150.7,10.4c73.9,6.8,151.9,16.9,226.1,19c65.5,2.3,131.5,0.8,196.4-8.9
														c34.9-4.9,69.4-12.3,104.5-15.7c24.9-2.5,50-2.6,75-0.3l3.7,0.3l1.9,0.1l1.9,0.2l7.5,0.9c14.3,1.6,30.6,4.2,44.6,6.9
														l7.4,1.4l3.7,0.7l3.7,0.8l14.7,3.2c2.5,0.5,4.9,1.1,7.4,1.6l7.3,1.8C1842.8,35.8,1881.6,47.4,1920,59.3"/>
												</g>
											</g>
										</g>
									</g>
									<g id="Group_85" transform="translate(0 81.63)" class="st53">
										<g id="Group_84">
											<g>
												<defs>
													<rect id="SVGID_00000117667213968093881620000004205230683325246619_" y="0" width="1920" height="64.6"/>
												</defs>
												<clipPath id="SVGID_00000174575808435268121950000011300432589558378928_">
													<use xlink:href="#SVGID_00000117667213968093881620000004205230683325246619_"  style="overflow:visible;"/>
												</clipPath>
												<g id="Group_83" style="clip-path:url(#SVGID_00000174575808435268121950000011300432589558378928_);">
													<path id="Path_389" class="st5" d="M1920,64.6c-51.9-19.2-105.1-36.9-159.3-48.6c-15.6-3.5-32.9-6.2-48.7-8.2
														c-1.3-0.2-2.5-0.3-3.8-0.4l-7.6-0.7c-4.8-0.5-10.5-1-15.2-1.2c-30.4-1.9-61.1,0.4-91.1,5.3
														c-29.9,4.8-59.5,11.3-89.4,15.8c-99.8,15.8-201.6,8.1-301.1-6.3c-39.4-5.7-80.7-11.1-120.3-14.4
														c-100.5-8.6-202-6.2-302.7-3.5C680,5.4,579.1,10.3,478.6,20C358.2,30.6,237.9,48.5,116.9,45C88,43.6,59,40.6,31.3,32.1
														C20.5,28.8,10,24.4,0,19c10.4,6.1,21.4,11,32.8,14.7c46.6,14.6,96.1,16,144.6,15.6c60.6-0.9,121-6,181.4-11.6
														C493.8,26.1,646,7.3,780.9,2.6c40.1-1.4,80.9-1.6,121-0.4c100.7,3,201.4,11.3,301.4,23c18.8,2.3,45.1,4.7,64.1,6.3
														c7,0.5,19.3,1.3,26.4,1.9c13.8,1.1,27.8,1.5,41.6,2.4c18.5,0.7,38.3,1.2,56.8,1.3c7.4,0,19.2-0.2,26.5-0.2
														c8.5-0.3,18-0.5,26.5-0.9c45.4-1.8,90.6-8.5,135.3-16.5c39.5-7.1,79.6-11.3,119.7-7.4c29.8,2.5,60,8.1,89.1,14.9
														C1833.3,37.2,1876.9,50.8,1920,64.6"/>
												</g>
											</g>
										</g>
									</g>
									<g id="Group_88" transform="translate(0 75.204)" class="st16">
										<g id="Group_87">
											<g>
												<defs>
													<rect id="SVGID_00000123415276337122454120000008415360290241500855_" y="0" width="1920" height="69.9"/>
												</defs>
												<clipPath id="SVGID_00000163777017344419442360000001755150755730665376_">
													<use xlink:href="#SVGID_00000123415276337122454120000008415360290241500855_"  style="overflow:visible;"/>
												</clipPath>
												<g id="Group_86" style="clip-path:url(#SVGID_00000163777017344419442360000001755150755730665376_);">
													<path id="Path_390" class="st5" d="M1920,69.9c-42.4-16.2-85.5-31.4-129.5-42.8c-34.2-9.1-69.4-16.1-104.8-17.8
														c-40.7-2.5-81.1,3.9-120.9,11.7c-37,7.2-74.5,13.1-112.2,15.6c-67.9,4.5-136.3-0.7-203.7-9.7c-3.8-0.5-11.2-1.5-15-2
														C1139.3,9.5,1043.3-0.2,947.4,0C831.3,0,715,4,599.2,11C458.2,19.2,318,40.7,176.8,45c-20.1,0.5-40.3,0.3-60.4-0.8
														c-28.8-1.6-57.9-4.9-85.4-14C20.2,26.7,9.8,22,0,16.3c9.6,6.1,19.9,11.1,30.6,14.9C58.1,41,87.2,45,116.2,47.3
														c80.8,5.2,161.7-2.2,242.2-9.1C515.1,25.1,684.5,2.4,841.3,1.5c40.2-0.2,80.9,1,121.1,3c80.6,4.2,160.9,10.6,241,20.7
														c40.1,5.1,80.4,8.8,120.7,11.6c80.6,5.5,162.2,5,241.8-9.9c10-1.7,19.9-3.5,29.8-5.2c6.6-1.1,15.6-2.5,22.3-3.5
														c42.3-6.1,85.2-4.4,127.2,3.5C1804.7,32.2,1862.7,51,1920,69.9"/>
												</g>
											</g>
										</g>
									</g>
									<g id="Group_91" transform="translate(0 68.663)" class="st56">
										<g id="Group_90">
											<g>
												<defs>
													<rect id="SVGID_00000060008506888363407050000000956372069800283810_" y="0" width="1920" height="75.3"/>
												</defs>
												<clipPath id="SVGID_00000010297058483151391510000009452336835299451050_">
													<use xlink:href="#SVGID_00000060008506888363407050000000956372069800283810_"  style="overflow:visible;"/>
												</clipPath>
												<g id="Group_89" style="clip-path:url(#SVGID_00000010297058483151391510000009452336835299451050_);">
													<path id="Path_391" class="st5" d="M1920,75.3c-30.4-12-61.6-23.5-92.7-33.4c-8.4-2.5-20.7-6.4-29.1-8.7
														c-7.1-1.9-15-4.2-22-5.9c-64.4-16.2-115.9-19.2-181.2-6.9c-24.4,4.4-49.9,9.4-74.5,13.1c-24.9,3.6-50,5.9-75.2,6.9
														c-121.8,6.4-240.8-25.1-361.5-34.8c-60.5-5.1-121.2-6.2-181.9-5.4c-39.1,0.5-82,1.6-121.2,2.9
														c-101,3.3-202,8.5-302.5,18.2C355.1,31.7,231.9,50,108.3,43c-19.9-1.6-40.3-4.1-59.6-9.2c-2.4-0.7-4.9-1.2-7.3-2
														l-7.2-2.3c-1.2-0.4-2.4-0.8-3.6-1.2L27.1,27c-9.5-3.5-18.5-8-27.1-13.4c16.7,11.4,36,18.7,55.6,23.5
														C95,46.9,136,48.7,176.3,48.8c40.4-0.1,81-2.2,121.2-5.2C424.3,34.1,563,18.3,689.9,8.4c60.3-4.6,121.1-7,181.6-6.6
														c126.1,1.7,252.2,12.2,377.1,29c54.5,6.3,111.5,11,166.3,12.1c19.5,0.2,41.2,0.2,60.7-0.9l7.6-0.3l7.6-0.6l7.6-0.6
														c2.5-0.2,5.1-0.4,7.6-0.6c40.3-3.3,80-12.3,119.9-18.1c23.6-3.3,47.4-4.1,71.2-2.5c41.3,3.1,82.2,12.4,122,23.7
														C1852.9,52.5,1886.7,63.9,1920,75.3"/>
												</g>
											</g>
										</g>
									</g>
									<g id="Group_94" transform="translate(0 62.173)" class="st22">
										<g id="Group_93">
											<g>
												<defs>
													<rect id="SVGID_00000126295408596114320090000004359422831284446857_" y="0" width="1920" height="80.6"/>
												</defs>
												<clipPath id="SVGID_00000075137285663769366890000015349647641002063021_">
													<use xlink:href="#SVGID_00000126295408596114320090000004359422831284446857_"  style="overflow:visible;"/>
												</clipPath>
												<g id="Group_92" style="clip-path:url(#SVGID_00000075137285663769366890000015349647641002063021_);">
													<path id="Path_392" class="st5" d="M1920,80.6c-51.4-20.9-104.1-40.2-158.2-53c-29.7-6.8-60.2-11.2-90.7-10.9
														c-20.4,0.4-40.7,2.4-60.7,6c-9.1,1.4-35.1,6.4-44.8,8.1c-39.6,7.5-79.8,11.8-120.1,12.8
														c-60.3,1.3-121.4-4.9-181.1-13.8C1180.4,15.2,1093.2,3.2,1008.1,1c-45.4-1.5-91.2-1.2-136.6-0.1
														C801,2.4,729.9,5.1,659.4,8.7C518,15,377.5,34.2,236.3,42.4c-40.3,2.2-80.7,3.2-121,0.3c-21.4-1.3-42.6-4.4-63.5-9.5
														C33.7,28.4,15.6,21.7,0,11c16.4,11.9,35.6,19.6,55.1,24.7C94.4,46,135.4,48.1,175.8,48.5c60.7,0.3,121.4-4.2,181.9-9.4
														C498.7,28,639.2,9.7,780.6,3.5c55.5-2.4,111.2-1.9,166.7,0.2c80.5,3.5,161.5,9.4,241.4,19.1
														c124.5,16.3,252.8,34.9,377.8,13.8c14.9-2.4,29.9-5.4,44.8-7.9c24.7-4.4,49.8-7.2,74.8-6.3c30,0.9,60.1,6.3,89.3,13
														C1824.5,47.2,1872.5,63.8,1920,80.6"/>
												</g>
											</g>
										</g>
									</g>
									<g id="Group_97" transform="translate(0 55.572)" class="st59">
										<g id="Group_96">
											<g>
												<defs>
													<rect id="SVGID_00000028297134829806270530000008825147391457640577_" y="0" width="1920" height="86.1"/>
												</defs>
												<clipPath id="SVGID_00000183250631712955176500000016753946018846193039_">
													<use xlink:href="#SVGID_00000028297134829806270530000008825147391457640577_"  style="overflow:visible;"/>
												</clipPath>
												<g id="Group_95" style="clip-path:url(#SVGID_00000183250631712955176500000016753946018846193039_);">
													<path id="Path_393" class="st5" d="M1920,86.1c-37.2-15.6-75.3-30.3-113.8-42.4c-38.7-11.8-78.9-21.6-119.5-22.7
														c-30.5-1.1-61.1,3.7-91,9.4c-29.4,5.6-59.8,10.9-89.7,13.5c-70.5,6.4-141.6,1.2-211.5-9.2
														c-22.9-3.2-51.9-8.5-74.8-12.4C1109.9,2.9,998-2.1,886.7,0.8C750.2,4.1,613.6,9.9,477.6,22.6
														C356.9,32.7,235.9,49.7,114.8,42c-17.6-1.3-35.1-3.8-52.4-7.5c-22-5.1-44-12.7-62.4-26.1C16.1,20.9,35.1,29,54.6,34.4
														c14.7,4,29.6,7,44.7,9c85.6,10.3,172.3,2.8,257.9-3.7C533.6,26.3,709.5,0.1,886.7,2.3c65.6,0.8,131.4,4.5,196.8,9.6
														c160.8,11,321.8,55,483.4,29.7c23.8-3.7,47.2-8.8,70.9-12.2c8-1.1,18-2.1,26.2-2.6l7.5-0.3l3.8-0.1
														c28.8-0.6,57.7,3.8,85.9,9.6C1815.2,48.2,1868,67,1920,86.1"/>
												</g>
											</g>
										</g>
									</g>
									<g id="Group_100" transform="translate(0 49.143)" class="st28">
										<g id="Group_99">
											<g>
												<defs>
													<rect id="SVGID_00000116936525318656518460000018060622101456046480_" y="0" width="1920" height="91.3"/>
												</defs>
												<clipPath id="SVGID_00000181784791080618093600000003732947540576345009_">
													<use xlink:href="#SVGID_00000116936525318656518460000018060622101456046480_"  style="overflow:visible;"/>
												</clipPath>
												<g id="Group_98" style="clip-path:url(#SVGID_00000181784791080618093600000003732947540576345009_);">
													<path id="Path_394" class="st5" d="M1920,91.3c-51.1-22-103.4-42.6-157.4-56.1c-34.6-8.5-70.7-12.8-106.2-9.5
														c-20.2,1.9-40.3,5.6-60.3,9.4c-34.6,6.6-69.8,11.6-105,13.3c-14.1,0.6-31.3,0.9-45.4,0.8
														c-86.3-0.5-170.8-18.6-255.7-32.4c-55.2-8.4-110.7-13.6-166.5-15.7c-80.9-3-162.1,0.1-243,3
														c-101.2,4-202.3,9.5-303.1,18.9c-120.8,10-241.9,26.8-363.1,18.1c-17.6-1.4-35.1-4.1-52.3-8.1
														C39.9,27.7,18.1,19.7,0,5.7c15.7,12.9,34.7,21.3,54.1,27.1c19.4,5.8,39.7,9.2,59.8,11.5c80.8,8,162.2,1.8,243-4.3
														c141.3-10.5,282-29,423.6-35.7C831,2,881.7,1.8,932.2,3.3c96,3.2,191.9,9.7,287.1,22.7
														c82.3,12.5,165.8,24.9,249.1,26.5c30.1,0.3,61.4-0.9,91.2-5.1c42.6-5.4,84.1-17.9,127.3-17.1
														c40.1,0.4,80.1,9.9,118.5,21C1844.1,63,1882.3,77,1920,91.3"/>
												</g>
											</g>
										</g>
									</g>
									<g id="Group_103" transform="translate(0 42.662)" class="st62">
										<g id="Group_102">
											<g>
												<defs>
													<rect id="SVGID_00000089539541195465165890000002639393621257824177_" y="0" width="1920" height="96.7"/>
												</defs>
												<clipPath id="SVGID_00000132058259451785953090000009088135889460218281_">
													<use xlink:href="#SVGID_00000089539541195465165890000002639393621257824177_"  style="overflow:visible;"/>
												</clipPath>
												<g id="Group_101" style="clip-path:url(#SVGID_00000132058259451785953090000009088135889460218281_);">
													<path id="Path_395" class="st5" d="M1920,96.7c-55.6-24.6-112.4-47.9-171.9-61.2c-24.3-5.1-49.4-7.8-74.3-6.7
														c-7.9,0.5-16.9,1.2-24.8,2.2c-17.6,2.4-35.1,5.8-52.5,9C1497,60,1394.3,52.5,1295,34.9c-29-5.3-60.8-11.7-89.8-16.2
														C1074.9-3.4,942.3-2.1,810.7,3.4c-28,1.1-63.2,2.5-91.1,3.9c-81,3.7-161.9,9-242.6,16.4c-100.8,9-201.6,20-302.9,19.8
														C128.8,42.6,82.6,40.4,39.6,25C25.4,19.8,11.7,12.8,0,3.1c11.4,10.1,25,17.6,39.1,23.2C82,42.8,128.5,46.1,174,47.5
														c60.9,1.4,121.7-2.5,182.4-7.2C518,28.9,678.9,5.7,841.1,2.7c40.5-0.7,81,0,121.5,1.6c96,4.1,192,10.7,287,25.7
														c17,2.7,43,7,60.1,9.4c65.2,9.2,131,17.3,196.9,16.2c20.4-0.3,40.7-1.8,60.9-4.6c40.4-5.1,79.6-16.9,119.8-16.9
														c30.1,0,60.2,5.5,89.3,13.1C1825.6,60,1872.9,78.2,1920,96.7"/>
												</g>
											</g>
										</g>
									</g>
									<g id="Group_106" transform="translate(0 36.166)" class="st34">
										<g id="Group_105">
											<g>
												<defs>
													<rect id="SVGID_00000114786360193954143990000002633563718034783409_" y="0" width="1920" height="102"/>
												</defs>
												<clipPath id="SVGID_00000062886166634335930410000016129555352307928960_">
													<use xlink:href="#SVGID_00000114786360193954143990000002633563718034783409_"  style="overflow:visible;"/>
												</clipPath>
												<g id="Group_104" style="clip-path:url(#SVGID_00000062886166634335930410000016129555352307928960_);">
													<path id="Path_396" class="st5" d="M1920,102c-48.3-22.1-97.9-43.1-149.1-57.4c-4.1-1-10.6-2.7-14.8-3.7
														c-1.9-0.5-5.5-1.3-7.5-1.7c-30.7-7-62.3-8.4-93.5-4.3c-25.5,3.5-55.1,10.2-80.6,13.7c-42.4,6.3-85.7,7.5-128.5,5.3
														c-45.5-2.2-90.8-8.6-135.7-16.4c-34.8-6.5-69.7-14-104.8-19.4C1065.1-5.6,922-1.4,780.2,4.9
														c-60.5,2.7-121.9,5.7-182.3,9.8C456.4,23.3,315.4,44,173.4,43.1c-45.3-1.2-91.6-3.7-134.3-19.8
														C25,17.8,11.5,10.5,0,0.4c11.2,10.4,24.5,18.3,38.6,24.1c42.6,17.3,89.2,21,134.7,22.6c60.9,1.8,121.8-1.9,182.6-6.4
														C502.6,30.6,648.5,10.9,795.4,4.3c25.1-0.9,51-1.6,76-1.7c141.7,0.8,283.9,9.3,423.5,34.3
														c71.2,11.7,143.3,22,215.6,22.2l3.8-0.1l7.6-0.2c35.6-0.5,71.2-6.2,105.9-13.2c19.7-3.8,39.7-7.1,59.8-7.4
														c30.1-0.6,60.2,5.1,89.3,12.9C1825.9,64.2,1873.1,83,1920,102"/>
												</g>
											</g>
										</g>
									</g>
									<g id="Group_109" transform="translate(0 27.446)" class="st65">
										<g id="Group_108">
											<g>
												<defs>
													<rect id="SVGID_00000137126272323712222280000015991341398811958441_" y="0" width="1920" height="109.6"/>
												</defs>
												<clipPath id="SVGID_00000021080635521286475990000011963773677575070364_">
													<use xlink:href="#SVGID_00000137126272323712222280000015991341398811958441_"  style="overflow:visible;"/>
												</clipPath>
												<g id="Group_107" style="clip-path:url(#SVGID_00000021080635521286475990000011963773677575070364_);">
													<path id="Path_397" class="st5" d="M1920,109.6c-50.5-23.7-102-46.6-156.1-60.9c-32-8.7-65.9-12.4-99-8.2
														c-6.9,0.8-15.9,2.2-22.7,3.4c-24.9,4.5-49.7,9.6-74.9,12.2c-40,4.6-81,4.6-121.2,1.8c-60.8-4.1-120.8-15.2-180.3-27.7
														c-99.7-20-201.5-29.1-303.1-28.2C892.3,2.4,820.2,5.7,749.7,9c-50.3,2.4-101.8,5.1-152,8.5
														C456,26.2,314.8,46.6,172.8,44.9c-30.3-0.7-60.7-2.8-90.5-8.6c-17.4-3.4-34.5-8.2-50.6-15.6C20.1,15.5,9.4,8.5,0,0
														c14.6,14.4,33.1,23.9,52.3,30.5C91,43.7,132.1,47.3,172.7,49c30.5,1.1,61,0.7,91.5-0.3
														c152.2-6.5,303.4-25.4,455.2-37.3c29.4-2.1,61.9-4,91.2-5c30.4-1.1,60.9-1.5,91.3-1.2C1043.4,7,1186.2,16.7,1325.3,44
														c9.8,1.6,35.4,5.9,45.1,7.1c4,0.6,18.5,2.7,22.6,3.3c5.7,0.7,17.1,2.1,22.7,2.8c3.5,0.5,11.5,1.4,15.1,1.7
														c8.3,0.9,22,2.4,30.3,3c10.7,1,27.3,1.8,38.1,2.3c43.4,1.5,86.7-2.3,129.1-11.5c14.7-2.9,29.9-5.8,44.8-7.4
														c35.1-3.6,70.5,2.3,104.3,11.7C1826.3,70.6,1873.3,90,1920,109.6"/>
												</g>
											</g>
										</g>
									</g>
									<g id="Group_112" transform="translate(0 18.297)" class="st40">
										<g id="Group_111">
											<g>
												<defs>
													<rect id="SVGID_00000179646740972802656090000004182139285539131835_" y="0" width="1920" height="117.6"/>
												</defs>
												<clipPath id="SVGID_00000041978579861305936110000003074074318927202450_">
													<use xlink:href="#SVGID_00000179646740972802656090000004182139285539131835_"  style="overflow:visible;"/>
												</clipPath>
												<g id="Group_110" style="clip-path:url(#SVGID_00000041978579861305936110000003074074318927202450_);">
													<path id="Path_398" class="st5" d="M1920,117.6c-46.8-22.7-94.6-44.5-144.5-59.6l-14.8-4.1c-27.2-7-55.8-10.5-83.9-7.6
														c-31.6,3.4-62.5,11.6-94,15.1c-45.1,5.4-91.2,4.9-136.4,0.8c-60.4-5-120.9-17.6-180.1-30.1
														C1146.5,7.8,1023.8,1.5,901.9,5.8c-29.5,0.9-61.7,2.2-91.4,3.4c-27,1.2-64.3,3-91.3,4.4
														c-162.4,6.3-323.9,27.8-486.3,33.4c-40.5,1-81.2,0.7-121.4-4.3c-30-3.9-60.3-10.1-87.1-24.8C15.5,13.1,7.3,7,0,0
														c14.2,14.8,32.6,24.7,51.7,31.6C90.2,45.3,131.4,49.3,172,51.2c40.7,1.7,81.4,0.9,122.1-1.2
														c142.1-7.2,283.4-24.2,425.2-35.5c29.4-2.1,62-4.1,91.3-5.1c81-3.2,162.6-0.8,243.5,3.7c80.9,4.8,162,12.1,241.7,27.6
														c49.6,9.5,100.4,18.4,150.5,24.2c40.3,4.8,81.5,7.2,122.1,4.2c30.6-2,60.5-9,90.5-14.4c7.4-1.2,14.9-2.4,22.4-3
														c25-2.5,50.3,0.7,74.8,6.1C1812.7,71.2,1866.5,94.6,1920,117.6"/>
												</g>
											</g>
										</g>
									</g>
									<g id="Group_115" transform="translate(0 9.148)" class="st68">
										<g id="Group_114">
											<g>
												<defs>
													<rect id="SVGID_00000111908901969325108970000013799620751563524497_" y="0" width="1920" height="125.6"/>
												</defs>
												<clipPath id="SVGID_00000137815450130652045950000018355436430083221938_">
													<use xlink:href="#SVGID_00000111908901969325108970000013799620751563524497_"  style="overflow:visible;"/>
												</clipPath>
												<g id="Group_113" style="clip-path:url(#SVGID_00000137815450130652045950000018355436430083221938_);">
													<path id="Path_399" class="st5" d="M1920,125.6c-36.3-18.1-73.3-35.9-111.4-50.1c-16.7-6.4-33.7-11.9-51.1-16.3
														l-7.5-1.8l-3.7-0.9l-3.8-0.7c-17.6-3.4-35.9-4.9-53.8-3.6c-20,1.3-40.8,6-60.5,9.6c-19.9,3.7-39.9,6.3-60.1,7.7
														c-81.1,5.3-162.4-6.2-241.7-23c-119-27.8-241.4-41.4-363.5-39.3c-60.5,0.6-122.4,3.6-183,6.4
														c-14.8,0.8-46,2.3-60.9,3.1c-162.5,6.5-324.3,27.9-486.7,32.8c-40.5,0.8-81.3,0.3-121.5-5.1c-30-4.1-60.3-10.8-86.8-26
														C15.2,13.5,7.1,7.2,0,0c13.8,15.2,32.1,25.5,51.1,32.7c57.8,20.9,120.5,21.7,181.3,21.9c81.4-0.8,162.6-8.1,243.7-14.7
														C577.3,31.3,678.5,19,780,13.8c60.9-3.4,122-3.8,182.9-2.1c101.3,3.3,203.2,8.8,303.3,25.4
														c79.9,14.3,159.8,33,241.1,38c20.4,1.4,40.8,1.6,61.3,0.6c20.4-1.1,40.8-3.7,60.9-7.7c14.1-2.8,30.6-6.2,44.8-8.4
														c14.9-2.2,30-2.7,45-1.6l7.5,0.8c2.5,0.3,5,0.5,7.5,1l7.4,1.2l3.7,0.6l3.7,0.8l7.4,1.6c12.1,2.6,24.7,6.5,36.5,10.2
														c2.4,0.7,4.8,1.6,7.2,2.4l7.2,2.5l7.2,2.5c2.4,0.8,4.7,1.8,7.1,2.7C1854,96.5,1888.6,111.4,1920,125.6"/>
												</g>
											</g>
										</g>
									</g>
									<g id="Group_118" class="st46">
										<g id="Group_117">
											<g>
												<defs>
													<rect id="SVGID_00000021086078050468345810000013411556292197086863_" y="0" width="1920" height="133.6"/>
												</defs>
												<clipPath id="SVGID_00000015322838263016371690000017659988400918904487_">
													<use xlink:href="#SVGID_00000021086078050468345810000013411556292197086863_"  style="overflow:visible;"/>
												</clipPath>
												<g id="Group_116" style="clip-path:url(#SVGID_00000015322838263016371690000017659988400918904487_);">
													<path id="Path_400" class="st5" d="M1920,133.6c-17-9-37.3-19.2-54.6-27.5c-46.2-21.2-93.9-42.9-145.2-47.4
														c-25.8-2.3-51.4,2.7-76.4,8.1c-44.6,10.1-90.5,13.6-136.1,10.3c-20.2-1.4-40.6-3.7-60.6-6.7
														c-30.1-4.5-60.1-10.7-89.9-17.2c-19.5-4.3-40.1-9.4-59.6-13.5c-30-6.2-60.2-11.3-90.6-15.2
														C1126.4,14.2,1044.3,12,963,12c-101.7,0-203.7,3.6-305.2,10c-101.5,6.5-202.9,17.5-304.3,24.5
														C261,51.6,102.6,66.2,23.6,19.1C14.9,13.9,6.9,7.5,0,0c3.4,3.8,7,7.4,10.9,10.7c27.7,23.1,63.9,32.4,98.8,38.4
														c40.3,6.6,81.3,7.7,122,7.7c81.5-0.4,162.8-7.4,244-14C617.3,31.9,759.9,15.3,902,12.5c122.1-2.4,244.1,7,364.4,28.1
														c60,11.4,119.7,24.9,180.4,31.9c60.6,7.3,122.4,12.6,183,2.7c10.1-1.6,20.1-3.6,30.1-5.4c9.9-1.9,19.9-3.6,29.9-4.6
														c40.4-4.5,80.1,7.4,117.9,20.8C1845.4,99.6,1883.5,117,1920,133.6"/>
												</g>
											</g>
										</g>
									</g>
								</g>
							</g>
						</g>
					</g>
				</g>
			</g>
		</g>
	</g>
</g>
</svg>
